# xmcd CD database file
#
# Track frame offsets:
#	150
#	18883
#	34953
#	55073
#	74958
#	89036
#	104244
#	117994
#	139666
#	156011
#	178188
#
# Disc length: 2489 seconds
#
# Revision: 0
# Processed by: cddbd v1.4PL0 Copyright (c) Steve Scherf et al.
# Submitted via: CDex 1.51
#
DISCID=a509b70b
DTITLE=Combo La Revelacion - Original
DYEAR=2002
DGENRE=Salsa
TTITLE0=Por Que Ahora
TTITLE1=Mi Rumba
TTITLE2=Cada Domingo
TTITLE3=Caliente
TTITLE4=Caribe
TTITLE5=Loco
TTITLE6=Alcatraz
TTITLE7=Tierra Mia
TTITLE8=Ayer
TTITLE9=Mambo Combo
TTITLE10=Presentacion
EXTD=YEAR: 2002
EXTT0=
EXTT1=
EXTT2=
EXTT3=
EXTT4=
EXTT5=
EXTT6=
EXTT7=
EXTT8=
EXTT9=
EXTT10=
PLAYORDER=
